<svg width="440" height="187" viewBox="0 0 440 187" fill="none" xmlns="http://www.w3.org/2000/svg">
<path d="M404.067 161.241C403.936 158.159 403.375 154.85 401.182 152.681C398.678 150.203 394.794 149.909 391.271 149.942C387.281 149.979 383.137 150.292 379.656 152.242C372.908 156.023 370.702 165.616 374.16 172.535C377.222 178.661 386.642 184.969 393.855 183.511C403.262 181.609 404.399 169.039 404.067 161.241Z" fill="#C5DA9A"/>
<path d="M309.645 150.22C303.436 146.509 295.199 146.9 288.975 150.585C274.31 159.267 285.654 180.513 300.072 181.131C316.96 181.855 324.68 159.205 309.645 150.22Z" fill="#C5DA9A"/>
<path d="M223.875 181.163C226.648 178.081 227.311 173.663 227.424 169.519C227.539 165.304 227.101 160.776 224.433 157.51C221.252 153.616 215.75 152.543 210.722 152.537C206.898 152.533 202.823 153.1 199.92 155.589C198.341 156.943 197.23 158.78 196.486 160.723C190.803 175.576 211.162 195.286 223.875 181.163Z" fill="#C5DA9A"/>
<path d="M109.395 177.845C113.445 187.768 127.255 189.18 134.174 181.387C143.514 170.868 132.757 153.672 119.136 157.651C111.052 160.013 106.212 170.044 109.395 177.845Z" fill="#C5DA9A"/>
<path d="M53.2607 103.694C53.8295 108.763 55.8931 113.913 59.9789 116.966C62.4045 118.779 65.3783 119.736 68.3701 120.203C74.5619 121.172 81.4748 119.896 85.7616 115.323C93.9544 106.583 89.1084 86.8725 78.0647 82.2867C63.7448 76.3404 51.7308 90.0564 53.2607 103.694Z" fill="#C5DA9A"/>
<path d="M144.187 101.378C144.318 104.46 144.879 107.769 147.072 109.939C149.576 112.416 153.46 112.71 156.982 112.677C160.973 112.64 165.116 112.327 168.597 110.377C175.346 106.596 177.552 97.0033 174.094 90.0838C171.032 83.9582 161.612 77.6496 154.399 79.1082C144.993 81.0104 143.855 93.5803 144.187 101.378Z" fill="#C5DA9A"/>
<path d="M238.608 112.401C244.817 116.112 253.053 115.721 259.278 112.036C273.943 103.354 262.598 82.1075 248.181 81.4897C231.293 80.7661 223.572 103.416 238.608 112.401Z" fill="#C5DA9A"/>
<path d="M324.375 81.4571C321.601 84.5386 320.938 88.9564 320.825 93.1007C320.71 97.3157 321.149 101.844 323.816 105.109C326.997 109.004 332.499 110.077 337.527 110.082C341.351 110.087 345.427 109.52 348.329 107.031C349.908 105.676 351.019 103.84 351.763 101.897C357.446 87.0432 337.087 67.3338 324.375 81.4571Z" fill="#C5DA9A"/>
<path d="M438.857 84.7752C434.806 74.8522 420.996 73.4394 414.077 81.2329C404.738 91.7518 415.495 108.948 429.115 104.969C437.2 102.607 442.039 92.5753 438.857 84.7752Z" fill="#C5DA9A"/>
<path d="M386.703 16.8134C386.134 11.7445 384.071 6.59431 379.985 3.54104C377.56 1.72818 374.586 0.771785 371.594 0.303652C365.402 -0.665174 358.489 0.611837 354.203 5.18407C346.01 13.9241 350.856 33.6346 361.9 38.2207C376.219 44.1666 388.233 30.4507 386.703 16.8134Z" fill="#C5DA9A"/>
<path d="M295.777 19.1279C295.646 16.0457 295.086 12.7374 292.893 10.5676C290.388 8.09047 286.504 7.79582 282.982 7.82876C278.992 7.86646 274.848 8.1794 271.367 10.1295C264.618 13.9104 262.412 23.5029 265.87 30.4224C268.932 36.5483 278.352 42.8569 285.565 41.398C294.971 39.4958 296.109 26.9262 295.777 19.1279Z" fill="#C5DA9A"/>
<path d="M201.356 8.10624C195.146 4.3956 186.91 4.7865 180.686 8.47151C166.021 17.153 177.365 38.3996 191.782 39.0175C208.671 39.7414 216.391 17.0918 201.356 8.10624Z" fill="#C5DA9A"/>
<path d="M115.588 39.05C118.361 35.9689 119.024 31.5508 119.137 27.4068C119.252 23.1914 118.813 18.6635 116.146 15.3979C112.965 11.5039 107.463 10.4308 102.435 10.4249C98.6113 10.4205 94.5354 10.9875 91.6329 13.4767C90.054 14.831 88.9428 16.6676 88.1994 18.6104C82.5156 33.4639 102.875 53.1733 115.588 39.05Z" fill="#C5DA9A"/>
<path d="M1.10593 35.7298C5.15621 45.6528 18.9659 47.0656 25.8853 39.2725C35.2245 28.7537 24.4678 11.5573 10.8474 15.5362C2.7625 17.8981 -2.07692 27.9297 1.10593 35.7298Z" fill="#C5DA9A"/>
</svg>
