<svg width="423" height="187" viewBox="0 0 423 187" fill="none" xmlns="http://www.w3.org/2000/svg">
<path d="M403.949 161.241C403.818 158.159 403.257 154.85 401.064 152.681C398.56 150.203 394.676 149.909 391.153 149.942C387.163 149.979 383.019 150.292 379.538 152.242C372.79 156.023 370.584 165.616 374.042 172.535C377.103 178.661 386.524 184.969 393.737 183.511C403.143 181.609 404.281 169.039 403.949 161.241Z" fill="white"/>
<path d="M309.527 150.22C303.317 146.509 295.081 146.9 288.857 150.585C274.192 159.267 285.536 180.513 299.953 181.131C316.842 181.855 324.562 159.205 309.527 150.22Z" fill="white"/>
<path d="M223.757 181.163C226.53 178.081 227.193 173.663 227.306 169.519C227.421 165.304 226.982 160.776 224.315 157.51C221.134 153.616 215.632 152.543 210.604 152.537C206.78 152.533 202.704 153.1 199.802 155.589C198.223 156.943 197.112 158.78 196.368 160.723C190.685 175.576 211.044 195.286 223.757 181.163Z" fill="white"/>
<path d="M109.277 177.845C113.327 187.768 127.137 189.18 134.056 181.387C143.395 170.868 132.639 153.672 119.018 157.651C110.934 160.013 106.094 170.044 109.277 177.845Z" fill="white"/>
<path d="M53.1426 103.694C53.7114 108.763 55.7749 113.913 59.8607 116.966C62.2863 118.779 65.2602 119.736 68.2519 120.203C74.4438 121.172 81.3566 119.896 85.6434 115.323C93.8362 106.583 88.9902 86.8725 77.9465 82.2867C63.6266 76.3404 51.6126 90.0564 53.1426 103.694Z" fill="white"/>
<path d="M144.069 101.378C144.2 104.46 144.761 107.769 146.954 109.939C149.458 112.416 153.342 112.71 156.864 112.677C160.854 112.64 164.998 112.327 168.479 110.377C175.228 106.596 177.434 97.0033 173.976 90.0838C170.914 83.9582 161.494 77.6496 154.281 79.1082C144.874 81.0104 143.736 93.5803 144.069 101.378Z" fill="white"/>
<path d="M238.49 112.401C244.699 116.112 252.935 115.721 259.16 112.036C273.824 103.354 262.48 82.1075 248.063 81.4897C231.174 80.7661 223.454 103.416 238.49 112.401Z" fill="white"/>
<path d="M324.256 81.4571C321.483 84.5386 320.82 88.9564 320.707 93.1007C320.592 97.3157 321.03 101.844 323.698 105.109C326.879 109.004 332.381 110.077 337.409 110.082C341.233 110.087 345.309 109.52 348.211 107.031C349.79 105.676 350.901 103.84 351.644 101.897C357.328 87.0432 336.969 67.3338 324.256 81.4571Z" fill="white"/>
<path d="M438.738 84.7752C434.688 74.8522 420.878 73.4394 413.959 81.2329C404.619 91.7518 415.377 108.948 428.997 104.969C437.082 102.607 441.921 92.5753 438.738 84.7752Z" fill="white"/>
<path d="M386.585 16.8134C386.016 11.7445 383.953 6.59431 379.867 3.54104C377.441 1.72818 374.468 0.771785 371.476 0.303652C365.284 -0.665174 358.371 0.611837 354.085 5.18407C345.891 13.9241 350.737 33.6346 361.782 38.2207C376.101 44.1666 388.115 30.4507 386.585 16.8134Z" fill="white"/>
<path d="M295.659 19.1279C295.528 16.0457 294.968 12.7374 292.774 10.5676C290.27 8.09047 286.386 7.79582 282.863 7.82876C278.874 7.86646 274.73 8.1794 271.248 10.1295C264.5 13.9104 262.294 23.5029 265.752 30.4224C268.814 36.5483 278.234 42.8569 285.447 41.398C294.853 39.4958 295.991 26.9262 295.659 19.1279Z" fill="white"/>
<path d="M201.238 8.10624C195.028 4.3956 186.792 4.7865 180.568 8.47151C165.903 17.153 177.247 38.3996 191.664 39.0175C208.552 39.7414 216.273 17.0918 201.238 8.10624Z" fill="white"/>
<path d="M115.47 39.05C118.243 35.9689 118.906 31.5508 119.019 27.4068C119.134 23.1914 118.695 18.6635 116.028 15.3979C112.846 11.5039 107.345 10.4308 102.317 10.4249C98.4932 10.4205 94.4173 10.9875 91.5148 13.4767C89.9358 14.831 88.8246 16.6676 88.0812 18.6104C82.3974 33.4639 102.756 53.1733 115.47 39.05Z" fill="white"/>
<path d="M0.987763 35.7298C5.03805 45.6528 18.8477 47.0656 25.7672 39.2725C35.1064 28.7537 24.3496 11.5573 10.7292 15.5362C2.64434 17.8981 -2.19509 27.9297 0.987763 35.7298Z" fill="white"/>
</svg>
