<svg width="116" height="179" viewBox="0 0 116 179" fill="none" xmlns="http://www.w3.org/2000/svg">
<path d="M-87.5644 48.8822C-101.189 62.6639 -108.184 75.6154 -108.949 88.4765C-109.471 97.2651 -105.986 106.729 -99.8532 113.176C-94.9546 118.326 -88.7586 121.126 -82.4066 121.059C-69.8208 120.926 -60.1916 110.887 -51.695 102.029L-51.615 101.946C-44.3713 94.3941 -33.3839 84.6204 -21.6223 86.9015C-14.6556 88.2531 -8.36798 93.6533 -2.40054 103.41C-1.43343 104.992 -0.477592 106.642 0.446938 108.239C4.08161 114.517 7.83975 121.01 13.5973 125.677C21.0048 131.68 33.1693 133.586 39.9085 126.198C44.6271 121.024 44.5973 113.884 44.5684 106.98C44.542 100.735 44.518 94.8369 47.6626 90.2373C53.7257 81.3691 67.7079 83.0801 75.5032 84.8881L76.8769 85.2085C86.9747 87.5673 98.4206 90.2416 107.196 84.2054C114.612 79.1057 117.811 68.4588 114.976 58.3143C112.208 48.4085 104.69 40.5977 99.2761 35.5845L99.276 35.584C74.4691 12.6135 39.8752 -0.99983 8.99493 0.057392C-5.21626 0.544227 -19.4762 4.52885 -32.9266 10.5473C-54.3566 20.1365 -73.7304 34.8892 -87.5644 48.8822ZM97.5692 37.4313C102.759 42.2378 109.958 49.7015 112.555 58.992C114.707 66.6931 113.069 77.1133 105.773 82.1303C97.9085 87.5372 87.0386 84.9986 77.4482 82.7581L76.0704 82.4367C67.65 80.4832 52.4935 78.7138 45.5878 88.8155C42.0004 94.0634 42.0275 100.635 42.0542 106.99C42.0819 113.708 42.1085 120.052 38.0515 124.501C32.4814 130.61 21.7279 129.028 15.1802 123.721C9.78293 119.347 6.14272 113.058 2.62206 106.976C1.69033 105.367 0.726624 103.703 -0.256462 102.096C-6.61324 91.703 -13.4453 85.9247 -21.1441 84.4308C-34.1093 81.9159 -45.7799 92.2273 -53.4279 100.202L-53.5088 100.286C-61.6606 108.787 -70.9016 118.421 -82.4333 118.542C-88.0796 118.601 -93.6198 116.079 -98.033 111.44C-103.7 105.482 -106.92 96.7405 -106.438 88.626C-105.712 76.4016 -98.9538 63.9808 -85.7769 50.6524C-63.6003 28.2207 -27.033 3.80889 9.08015 2.57331C39.3236 1.53737 73.2305 14.8947 97.5693 37.4318L97.5692 37.4313Z" fill="#EFE2D3"/>
<path d="M113.884 169.016C116.648 163.533 115.436 157.155 113.933 152.77C112.091 147.402 109.388 143.33 105.897 140.668C99.7894 136.01 90.4061 135.762 83.585 140.076C77.171 144.133 73.0163 151.977 73.0001 160.06C72.9768 171.597 78.3022 178.654 87.2444 178.936C88.3249 178.97 89.4137 178.991 90.5043 178.991C100.046 178.991 109.663 177.391 113.884 169.016ZM104.954 141.905C108.196 144.377 110.722 148.203 112.461 153.275C113.868 157.377 115.015 163.316 112.495 168.315C108.184 176.867 97.3382 177.696 87.293 177.381C75.7663 177.017 74.5456 165.149 74.5557 160.063C74.5709 152.5 78.4415 145.17 84.4165 141.391C87.4231 139.489 90.9656 138.545 94.4569 138.545C98.2714 138.545 102.025 139.672 104.954 141.905Z" fill="#EFE2D3"/>
</svg>
