<svg width="225" height="131" viewBox="0 0 225 131" fill="none" xmlns="http://www.w3.org/2000/svg">
<path d="M21.4356 48.8822C7.81119 62.6639 0.815686 75.6154 0.0514206 88.4765C-0.470769 97.2651 3.01407 106.729 9.1468 113.176C14.0454 118.326 20.2414 121.126 26.5934 121.059C39.1792 120.926 48.8084 110.887 57.305 102.029L57.385 101.946C64.6287 94.3941 75.6161 84.6204 87.3777 86.9015C94.3444 88.2531 100.632 93.6533 106.599 103.41C107.567 104.992 108.522 106.642 109.447 108.239C113.082 114.517 116.84 121.01 122.597 125.677C130.005 131.68 142.169 133.586 148.909 126.198C153.627 121.024 153.597 113.884 153.568 106.98C153.542 100.735 153.518 94.8369 156.663 90.2373C162.726 81.3691 176.708 83.0801 184.503 84.8881L185.877 85.2085C195.975 87.5673 207.421 90.2416 216.196 84.2054C223.612 79.1057 226.811 68.4588 223.976 58.3143C221.208 48.4085 213.69 40.5977 208.276 35.5845L208.276 35.584C183.469 12.6135 148.875 -0.99983 117.995 0.057392C103.784 0.544227 89.5238 4.52885 76.0734 10.5473C54.6434 20.1365 35.2696 34.8892 21.4356 48.8822ZM206.569 37.4313C211.759 42.2378 218.958 49.7015 221.555 58.992C223.707 66.6931 222.069 77.1133 214.773 82.1303C206.909 87.5372 196.039 84.9986 186.448 82.7581L185.07 82.4367C176.65 80.4832 161.494 78.7138 154.588 88.8155C151 94.0634 151.028 100.635 151.054 106.99C151.082 113.708 151.109 120.052 147.051 124.501C141.481 130.61 130.728 129.028 124.18 123.721C118.783 119.347 115.143 113.058 111.622 106.976C110.69 105.367 109.727 103.703 108.744 102.096C102.387 91.703 95.5547 85.9247 87.8559 84.4308C74.8907 81.9159 63.2201 92.2273 55.5721 100.202L55.4912 100.286C47.3394 108.787 38.0984 118.421 26.5667 118.542C20.9204 118.601 15.3802 116.079 10.967 111.44C5.29987 105.482 2.0796 96.7405 2.56168 88.626C3.28788 76.4016 10.0462 63.9808 23.2231 50.6524C45.3997 28.2207 81.967 3.80889 118.08 2.57331C148.324 1.53737 182.23 14.8947 206.569 37.4318L206.569 37.4313Z" fill="#EFE2D3"/>
</svg>
