<svg width="43" height="42" viewBox="0 0 43 42" fill="none" xmlns="http://www.w3.org/2000/svg">
<path d="M40.8843 32.0156C43.648 26.5326 42.4362 20.1551 40.933 15.7704C39.0912 10.4019 36.3879 6.32996 32.8965 3.66756C26.7894 -0.989896 17.4061 -1.23828 10.585 3.07593C4.17105 7.13298 0.0163044 14.9772 7.57182e-05 23.0603L0.777932 23.0619L7.57182e-05 23.0603C-0.023159 34.5975 5.30216 41.6537 14.2444 41.9356C15.3249 41.9698 16.4137 41.9905 17.5043 41.9905C27.0456 41.9905 36.6628 40.3911 40.8843 32.0156ZM31.9537 4.90476C35.1959 7.3774 37.7216 11.2029 39.4614 16.2751C40.8676 20.3769 42.015 26.3158 39.4949 31.3151C35.1842 39.8674 24.3382 40.6961 14.293 40.3807C2.76629 40.0173 1.54558 28.1492 1.55565 23.0634C1.57087 15.4997 5.44146 8.17049 11.4165 4.39076C14.4231 2.48897 17.9656 1.54548 21.4569 1.54548C25.2714 1.54548 29.0255 2.67156 31.9537 4.90476Z" fill="#EFE2D3"/>
</svg>
