<svg width="171" height="350" viewBox="0 0 171 350" fill="none" xmlns="http://www.w3.org/2000/svg">
<path d="M67.7197 51.6463C48.4859 54.0167 34.9686 59.8445 26.3973 69.4634C20.5402 76.0366 17.409 85.6233 18.226 94.4834C18.878 101.561 22.0047 107.599 27.0308 111.484C36.9899 119.18 50.7689 117.27 62.9265 115.586L63.0411 115.57C73.4062 114.133 88.0865 113.274 95.9025 122.354C100.532 127.733 102.119 135.868 100.755 147.223C100.533 149.063 100.26 150.951 99.9962 152.777C98.9567 159.957 97.8815 167.382 99.5071 174.613C101.599 183.915 109.964 192.95 119.832 191.329C126.742 190.194 131.144 184.573 135.401 179.136C139.25 174.22 142.887 169.576 148.206 167.916C158.461 164.714 168.373 174.723 173.369 180.974L174.249 182.077C180.711 190.187 188.035 199.38 198.663 200.082C207.644 200.677 216.754 194.305 220.816 184.586C224.783 175.097 223.725 164.308 222.584 157.018L222.584 157.018C217.355 123.616 198.645 91.4909 173.757 73.1804C162.303 64.7541 148.643 59.0424 134.357 55.4286C111.596 49.6709 87.249 49.2399 67.7197 51.6463ZM220.1 157.409C221.193 164.398 222.217 174.717 218.496 183.617C215.412 190.995 207.668 198.157 198.833 197.571C189.31 196.94 182.353 188.211 176.216 180.508L175.334 179.402C169.937 172.65 159.139 161.867 147.459 165.514C141.391 167.409 137.339 172.582 133.421 177.586C129.279 182.875 125.368 187.87 119.427 188.846C111.269 190.188 103.81 182.282 101.962 174.059C100.437 167.281 101.479 160.089 102.485 153.134C102.752 151.294 103.027 149.391 103.252 147.52C104.705 135.425 102.925 126.655 97.8092 120.711C89.1935 110.702 73.6439 111.56 62.6993 113.078L62.5836 113.094C50.9174 114.712 37.6947 116.544 28.5699 109.492C24.1023 106.039 21.3179 100.626 20.7301 94.2497C19.9755 86.0618 22.8668 77.2057 28.2746 71.1367C36.4214 61.9937 49.4236 56.4355 68.0253 54.1433C99.3318 50.2857 143.159 53.7936 172.264 75.2076C196.64 93.14 214.969 124.638 220.1 157.41L220.1 157.409Z" fill="#EFE2D3"/>
<path d="M47.8843 237.016C50.648 231.533 49.4362 225.155 47.933 220.77C46.0912 215.402 43.3879 211.33 39.8965 208.668C33.7894 204.01 24.4061 203.762 17.585 208.076C11.171 212.133 7.0163 219.977 7.00008 228.06L7.77793 228.062L7.00008 228.06C6.97684 239.597 12.3022 246.654 21.2444 246.936C22.3249 246.97 23.4137 246.991 24.5043 246.991C34.0456 246.991 43.6628 245.391 47.8843 237.016ZM38.9537 209.905C42.1959 212.377 44.7216 216.203 46.4614 221.275C47.8676 225.377 49.015 231.316 46.4949 236.315C42.1842 244.867 31.3382 245.696 21.293 245.381C9.76629 245.017 8.54558 233.149 8.55565 228.063C8.57087 220.5 12.4415 213.17 18.4165 209.391C21.4231 207.489 24.9656 206.545 28.4569 206.545C32.2714 206.545 36.0255 207.672 38.9537 209.905Z" fill="#EFE2D3"/>
<path d="M121.884 340.016C124.648 334.533 123.436 328.155 121.933 323.77C120.091 318.402 117.388 314.33 113.897 311.668C107.789 307.01 98.4061 306.762 91.585 311.076C85.171 315.133 81.0163 322.977 81.0001 331.06L81.7779 331.062L81.0001 331.06C80.9768 342.597 86.3022 349.654 95.2444 349.936C96.3249 349.97 97.4137 349.991 98.5043 349.991C108.046 349.991 117.663 348.391 121.884 340.016ZM112.954 312.905C116.196 315.377 118.722 319.203 120.461 324.275C121.868 328.377 123.015 334.316 120.495 339.315C116.184 347.867 105.338 348.696 95.293 348.381C83.7663 348.017 82.5456 336.149 82.5557 331.063C82.5709 323.5 86.4415 316.17 92.4165 312.391C95.4231 310.489 98.9656 309.545 102.457 309.545C106.271 309.545 110.025 310.672 112.954 312.905Z" fill="#EFE2D3"/>
</svg>
