<svg width="258" height="243" viewBox="0 0 258 243" fill="none" xmlns="http://www.w3.org/2000/svg">
<path d="M67.7195 51.6463C48.4857 54.0167 34.9684 59.8445 26.3971 69.4634C20.54 76.0366 17.4088 85.6233 18.2257 94.4834C18.8777 101.561 22.0044 107.599 27.0306 111.484C36.9897 119.18 50.7687 117.27 62.9263 115.586L63.0409 115.57C73.406 114.133 88.0862 113.274 95.9023 122.354C100.532 127.733 102.119 135.868 100.754 147.223C100.533 149.063 100.26 150.951 99.9959 152.777C98.9565 159.957 97.8813 167.382 99.5069 174.613C101.599 183.915 109.964 192.95 119.832 191.329C126.742 190.194 131.143 184.573 135.4 179.136C139.25 174.22 142.887 169.576 148.206 167.916C158.46 164.714 168.372 174.723 173.369 180.974L174.248 182.077C180.711 190.187 188.035 199.38 198.663 200.082C207.644 200.677 216.753 194.305 220.816 184.586C224.783 175.097 223.725 164.308 222.584 157.018L222.584 157.018C217.355 123.616 198.645 91.4909 173.757 73.1804C162.303 64.7541 148.642 59.0424 134.357 55.4286C111.596 49.6709 87.2488 49.2399 67.7195 51.6463ZM220.1 157.409C221.193 164.398 222.217 174.717 218.496 183.617C215.412 190.995 207.668 198.157 198.832 197.571C189.31 196.94 182.353 188.211 176.216 180.508L175.334 179.402C169.937 172.65 159.139 161.867 147.459 165.514C141.391 167.409 137.339 172.582 133.421 177.586C129.279 182.875 125.367 187.87 119.426 188.846C111.269 190.188 103.81 182.282 101.962 174.059C100.437 167.281 101.478 160.089 102.485 153.134C102.751 151.294 103.026 149.391 103.251 147.52C104.704 135.425 102.925 126.655 97.8089 120.711C89.1933 110.702 73.6436 111.56 62.699 113.078L62.5834 113.094C50.9172 114.712 37.6945 116.544 28.5697 109.492C24.1021 106.039 21.3177 100.626 20.7299 94.2497C19.9753 86.0618 22.8665 77.2057 28.2743 71.1367C36.4211 61.9937 49.4234 56.4355 68.025 54.1433C99.3316 50.2857 143.159 53.7936 172.264 75.2076C196.639 93.14 214.969 124.638 220.1 157.41L220.1 157.409Z" fill="#EFE2D3"/>
</svg>
