<svg width="308" height="239" viewBox="0 0 308 239" fill="none" xmlns="http://www.w3.org/2000/svg">
<path d="M271.191 118.074L122.976 116.986L270.885 126.555L123.135 114.766L269.96 135.057L123.464 112.515L268.408 143.502L123.962 110.268L266.236 151.829L124.628 108.055L263.458 159.971L125.453 105.902L260.091 167.879L126.43 103.825L256.164 175.502L127.545 101.841L251.695 182.806L128.794 99.9572L246.717 189.75L130.167 98.1838L241.255 196.306L131.66 96.5184L235.336 202.444L133.269 94.9661L228.986 208.134L134.988 93.5346L222.231 213.356L136.818 92.2239L215.105 218.08L138.753 91.0391L207.636 222.279L140.784 89.993L199.864 225.929L142.901 89.0935L191.835 229L145.086 88.3482L183.596 231.475L147.319 87.7648L175.21 233.336L149.571 87.3536L166.733 234.575L151.809 87.1094L158.234 235.189L153.999 87.0298L149.766 235.189L156.191 87.1094L141.267 234.575L158.43 87.3536L132.783 233.336L160.684 87.7674L124.389 231.473L162.917 88.3508L116.147 228.995L165.104 89.0961L108.115 225.921L167.219 89.9956L100.346 222.269L169.252 91.0416L92.8775 218.067L171.185 92.2264L85.7482 213.343L173.015 93.5372L78.9966 208.118L174.737 94.9713L72.646 202.423L176.346 96.5236L66.7271 196.286L177.839 98.1864L61.2683 189.73L179.211 99.9649L56.2901 182.785L180.458 101.846L51.8259 175.484L181.573 103.83L47.8988 167.858L182.547 105.907L44.5346 159.953L183.372 108.061L41.7589 151.813L184.038 110.271L39.5898 143.492L184.536 112.517L38.04 135.051L184.863 114.768L37.1148 126.557L185.025 116.986L36.809 118.074L185.025 119.161L37.1148 109.59L184.863 121.379L38.04 101.091L184.534 123.63L39.5923 92.6428L184.035 125.879L41.764 84.3183L183.372 128.092L44.5423 76.1764L182.547 130.245L47.9065 68.2683L181.57 132.322L51.8361 60.6429L180.455 134.306L56.3029 53.3413L179.206 136.187L61.2811 46.397L177.834 137.963L66.7451 39.8408L176.34 139.629L72.6639 33.7035L174.732 141.178L79.0146 28.0108L173.012 142.613L85.7687 22.791L171.18 143.923L92.8955 18.0672L169.247 145.106L100.364 13.8677L167.217 146.154L108.136 10.2182L165.099 147.054L116.165 7.14697L162.914 147.799L124.402 4.672L160.681 148.38L132.791 2.81127L158.43 148.794L141.267 1.5725L156.191 149.038L149.763 0.958252L153.999 149.117L158.234 0.958252L151.809 149.038L166.733 1.5725L149.571 148.794L175.217 2.81127L147.317 148.38L183.611 4.67457L145.083 147.796L191.851 7.15211L142.896 147.051L199.882 10.2259L140.778 146.152L207.654 13.878L138.748 145.103L215.123 18.0775L136.813 143.921L222.252 22.8038L134.983 142.61L229.004 28.0288L133.264 141.176L235.354 33.7215L131.655 139.624L241.273 39.8613L130.161 137.958L246.732 46.415L128.789 136.182L251.708 53.3619L127.543 134.301L256.174 60.6635L126.425 132.317L260.101 68.2888L125.451 130.24L263.463 76.1944L124.628 128.087L266.241 84.3338L123.962 125.874L268.41 92.6556L123.464 123.627L269.96 101.093L123.135 121.379L270.885 109.59L122.976 119.161L271.191 118.074Z" fill="#FDB137"/>
<path d="M72.6221 148.897C74.0012 151.088 75.1978 153.389 76.1997 155.777C76.5424 156.594 76.8593 157.376 77.1506 158.123C77.2637 158.38 77.3562 158.637 77.4307 158.85L77.4873 159.02V159.131L75.3053 159.902V159.845L75.2513 159.621C75.1742 159.434 75.1023 159.231 75.0277 159.007C74.7518 158.226 74.4344 157.46 74.0768 156.712C73.1216 154.424 71.9809 152.217 70.6663 150.115C69.8833 149.405 66.621 148.846 60.8795 148.437C54.7285 148.029 49.7708 148.141 46.0065 148.773C44.1407 149.145 43.0775 149.536 42.8171 149.948C42.3699 151.065 41.8293 153.134 41.1954 156.154C40.9709 157.122 40.7662 158.11 40.5811 159.118C40.5066 159.49 40.4501 159.806 40.4141 160.069L40.3575 160.459L38.0728 160.076V159.909C38.112 159.821 38.1313 159.726 38.1293 159.629L38.3529 158.622C38.5773 157.539 38.7821 156.511 38.9671 155.538C39.6765 152.442 40.2762 150.279 40.7662 149.051C40.9906 148.454 41.8859 147.855 43.4519 147.252C43.5559 147.078 43.6478 146.898 43.7269 146.712C43.8734 146.414 44.025 146.077 44.1741 145.705C44.5819 144.736 45.0102 143.637 45.4591 142.407C46.8131 138.197 47.8965 133.905 48.7025 129.557C51.6093 114.393 52.8969 75.4621 52.5576 52.2749C52.5217 51.1561 53.0622 50.2429 54.1794 49.5352C55.634 48.7145 57.7586 48.3787 60.5531 48.5278C63.238 48.6768 65.3446 49.1986 66.8729 50.0929C67.4408 50.3707 67.9237 50.7958 68.271 51.324C68.4895 51.6769 68.606 52.0835 68.6077 52.4985C68.6077 57.4562 68.7748 90.7334 69.1217 112.839C69.1988 116.567 69.2733 120.63 69.3453 125.028C69.3847 127.941 69.4413 131.501 69.5149 135.71C69.6246 142.942 69.6803 146.875 69.682 147.509C71.3799 148.026 72.36 148.489 72.6221 148.897ZM48.6332 146.157C54.9065 145.631 61.2216 145.913 67.4229 146.997C67.3458 145.284 67.2524 141.015 67.1428 134.191C67.0297 126.994 66.9175 119.464 66.8061 111.6C66.472 90.5766 66.2921 57.7106 66.2921 52.4882C66.0693 51.9742 64.8957 51.5082 62.7711 51.0901C60.458 50.6823 58.4448 50.6635 56.7314 51.0336L56.1712 51.1467C55.9572 51.2172 55.7513 51.3103 55.5569 51.4242C55.0737 51.6504 54.8296 51.91 54.8296 52.2081C55.1303 73.3443 54.1023 110.926 51.7455 125.455C51.0014 130.15 49.9932 134.798 48.7257 139.38C48.2785 140.944 47.8313 142.417 47.3841 143.798C47.0413 144.767 46.6493 145.718 46.2096 146.648C46.4189 146.644 46.6263 146.607 46.8238 146.537L47.3378 146.368C47.7625 146.259 48.196 146.188 48.6332 146.157Z" fill="#3C3973"/>
<path d="M105.488 149.757C102.132 149.98 99.2242 150.092 96.7655 150.094C91.173 150.094 87.9853 149.628 87.2023 148.696C86.5315 147.838 86.0663 116.146 85.8042 93.1081C85.7288 84.3099 85.6731 75.0277 85.6371 65.2614C85.6371 62.018 85.6183 58.8302 85.5806 55.6982V50.2754C85.5739 50.0332 85.6206 49.7925 85.7175 49.5704C85.8143 49.3483 85.9588 49.1502 86.1409 48.9903C87.1106 48.0206 91.3607 47.647 98.891 47.8698C100.904 47.9829 102.88 48.0394 104.818 48.0394V50.3345C103.961 50.3345 102.973 50.3156 101.854 50.2779L98.7702 50.2214C97.5708 50.1854 96.5085 50.1486 95.5833 50.1109C94.3514 50.0749 93.2702 50.056 92.3399 50.0543C89.9154 50.092 88.4239 50.2411 87.8654 50.5015C87.8654 58.7771 87.9219 69.6254 88.035 83.0463H88.8728C89.284 83.0077 89.6439 82.9897 89.9343 82.9897C90.9417 82.9537 91.8927 82.9332 92.7871 82.9332C95.3246 82.9332 97.3935 82.9897 98.9938 83.1028L98.8832 85.3953C97.2795 85.2822 95.2106 85.2257 92.6765 85.2257C91.7796 85.2642 90.8492 85.2822 89.8803 85.2822C89.5436 85.2822 89.189 85.3028 88.8163 85.3388H88.089C88.2766 110.875 88.603 144.671 89.0399 147.244C89.8606 147.545 91.9672 147.717 95.3597 147.758C98.454 147.796 101.79 147.721 105.368 147.534L105.488 149.757Z" fill="#3C3973"/>
<path d="M140.086 50.7791C140.05 50.7791 139.696 50.7971 139.025 50.8356C138.242 50.911 137.347 50.9667 136.342 51.0027C133.429 51.2271 130.67 51.4319 128.066 51.6169V106.31C128.102 127.745 128.102 142.339 128.066 150.094L125.771 150.038V51.8405C119.774 52.2877 115.823 52.6604 113.918 52.9585L113.581 50.666C115.855 50.2959 120.813 49.8299 128.457 49.2679C130.881 49.0828 133.451 48.9158 136.167 48.7667C137.061 48.693 137.918 48.6365 138.737 48.5971C138.993 48.5642 139.25 48.5462 139.508 48.5431C139.636 48.5129 139.767 48.4939 139.899 48.4866L140.086 50.7791Z" fill="#3C3973"/>
<path d="M207.271 50.7791C207.235 50.7791 206.881 50.7971 206.207 50.8356C205.426 50.911 204.532 50.9667 203.524 51.0027C200.611 51.2271 197.853 51.4319 195.248 51.6169V106.31C195.284 127.745 195.284 142.339 195.248 150.094L192.956 150.038V51.8405C186.959 52.2877 183.008 52.6604 181.103 52.9585L180.766 50.666C183.04 50.2959 187.997 49.8299 195.639 49.2679C198.062 49.0828 200.632 48.9158 203.349 48.7667C204.244 48.693 205.1 48.6365 205.919 48.5971C206.175 48.5641 206.433 48.5461 206.69 48.5431C206.82 48.5127 206.951 48.4937 207.084 48.4866L207.271 50.7791Z" fill="#3C3973"/>
<path d="M155.338 148.192C152.617 145.881 150.732 141.169 149.684 134.057C148.939 128.985 148.455 119.982 148.232 107.048C147.975 93.5911 148.658 64.1536 150.301 58.2167C151.943 52.2799 154.886 48.8026 159.134 47.8697C162.268 47.1637 165.064 47.7043 167.523 49.4914C170.319 51.5474 171.866 54.6795 172.164 58.8875L169.926 59.1111C169.628 55.5696 168.379 52.9995 166.181 51.4009C164.279 49.9857 162.098 49.5573 159.638 50.1159C156.096 50.8972 153.617 54.1218 152.2 59.7896C150.822 65.4926 150.262 94.3904 150.524 106.989C150.749 119.366 151.196 128.015 151.866 132.934C152.796 139.945 154.455 144.437 156.842 146.411C158.221 147.61 160.01 148.039 162.21 147.696C167.207 146.915 169.927 144.454 170.373 140.315L172.668 140.539C172.032 145.872 168.64 149.022 162.491 149.989L160.756 150.102C158.779 150.137 156.856 149.459 155.338 148.192Z" fill="#3C3973"/>
<path d="M220.234 149.646C219.343 149.433 218.48 149.113 217.664 148.695C216.958 148.248 216.455 146.514 216.156 143.494C215.485 136.598 215.241 113.38 215.428 93.5854C215.616 72.4878 216.287 49.5499 217.441 48.4679C220.201 45.9732 223.127 45.4884 226.22 47.0133C228.98 48.4319 231.293 51.1348 233.159 55.1218C236.624 62.5313 235.768 69.7866 235.341 73.6263C234.655 79.7944 233.773 87.6923 227.649 92.2027C226.233 93.2386 224.652 94.0284 222.974 94.5389C226.252 95.5589 229.191 97.4533 231.473 100.018C237.066 106.207 238.762 126.071 236.562 139.854C235.817 144.215 233.654 147.213 230.075 148.85C228.218 149.706 226.191 150.131 224.146 150.093C222.829 150.096 221.517 149.946 220.234 149.646ZM220.681 147.408C221.509 147.602 222.35 147.734 223.198 147.801C225.437 147.95 227.431 147.614 229.181 146.793C232.013 145.49 233.709 143.048 234.269 139.469C236.359 126.459 234.866 107.212 229.8 101.478C227.949 99.4504 225.624 97.9131 223.033 97.0036C222.035 96.624 221.002 96.3434 219.949 96.1658C219.204 96.0167 218.461 95.9087 217.713 95.8291C217.677 96.6858 217.658 97.916 217.657 99.5197C217.582 110.257 217.695 129.096 217.993 136.29C218.252 142.286 218.588 145.79 219.001 146.801C219.535 147.069 220.099 147.273 220.681 147.408ZM217.721 93.4749C218.235 93.4004 218.785 93.3053 219.342 93.1948C220.486 92.966 221.334 92.7296 221.468 92.6807C223.254 92.1667 225.788 90.5913 226.809 89.7612C231.571 85.8829 232.946 74.2739 233.043 73.3924C234.12 63.6544 231.758 57.5917 231.142 56.2295C229.538 52.652 227.544 50.2661 225.159 49.0719C223.102 48.0319 221.108 48.3488 219.175 50.0228C218.466 52.1585 217.978 74.5361 217.721 93.4749Z" fill="#3C3973"/>
<path d="M253.424 148.089C250.696 145.226 248.627 139.597 247.217 131.201C246.063 124.262 245.521 97.6052 245.596 87.6436C245.745 76.3473 246.583 67.3787 248.112 60.7376C250.168 51.9583 253.411 47.5686 257.842 47.5686C262.391 47.5686 265.652 51.9197 267.626 60.622C268.968 66.6548 269.732 75.1471 269.919 86.099C269.957 91.3651 269.919 113.892 269.808 117.289C269.62 121.679 269.303 125.667 268.857 129.253C267.704 138.567 265.672 144.751 262.761 147.804C261.31 149.33 259.651 150.094 257.785 150.094C256.185 150.094 254.731 149.425 253.424 148.089ZM250.741 59.9358C248.988 66.6179 248.056 75.8539 247.945 87.6436C247.831 98.294 248.428 125.341 249.744 132.404C251.049 139.429 252.82 144.104 255.056 146.429C255.913 147.308 256.826 147.747 257.796 147.747C258.995 147.747 260.113 147.213 261.15 146.143C263.35 143.853 265.028 139.273 266.184 132.404C267.302 125.465 267.767 97.9136 267.582 86.1427C267.394 72.631 266.238 62.8416 264.115 56.7746C262.512 52.1947 260.424 49.9048 257.852 49.9048C254.862 49.9134 252.492 53.257 250.741 59.9358Z" fill="#3C3973"/>
<path d="M176.317 192.086L173.618 191.374C174.477 190.043 175.217 188.902 176.047 187.617C179.343 187.981 182.679 187.608 185.813 186.524L186.384 187.894C184.35 188.839 182.152 189.38 179.912 189.488C179.427 189.511 178.956 189.508 178.506 189.488C178.506 190.635 178.351 191.777 178.044 192.883C178.044 192.883 177.232 195.792 175.217 198.023C174.664 198.627 174.054 199.176 173.395 199.662C172.29 200.531 171.034 201.187 169.691 201.598C168.948 201.801 167.355 202.06 166.389 201.287C164.703 199.937 165.846 196.041 166.52 193.738C167.46 190.531 168.73 188.372 170.701 185.447C171.986 183.546 173.528 181.849 175.135 180.197C175.996 179.302 175.996 179.307 177.173 179.85C177.913 180.192 178.684 180.459 179.427 180.793C179.671 180.939 179.9 181.112 180.108 181.307C179.054 182.335 177.933 183.181 177.098 184.257C175.728 186.026 174.163 187.64 173.073 189.655C172.246 191.179 171.305 192.631 170.994 194.363C170.851 195.114 170.799 195.879 170.84 196.643C170.917 197.815 171.693 198.257 172.693 197.671C174.167 196.832 175.282 195.482 175.828 193.877C176.014 193.376 176.116 192.849 176.317 192.086Z" fill="#3C3973"/>
<path d="M55.1305 225.795C54.6165 225.281 53.8995 224.115 54.9018 219.753C55.5566 216.939 56.587 214.225 57.9653 211.686C67.4411 193.32 82.4375 185.828 82.4401 185.828C84.0592 185.021 85.4368 184.441 86.362 184.07C84.8713 186.828 82.6379 188.684 80.2581 190.239C80.6204 191.596 81.6099 192.225 82.3938 193.014C82.7999 193.425 83.265 193.328 83.63 192.963C85.1919 191.437 86.597 189.758 87.8243 187.951C88.6777 186.621 89.3583 185.187 89.8495 183.685C90.1862 182.695 90.7696 181.804 90.4561 180.601C90.1991 180.601 89.7802 180.601 89.2867 180.627C74.4471 181.287 64.1335 194.549 59.2735 200.794C48.3738 214.819 49.3813 223.467 49.8516 224.77C50.2653 225.927 51.002 226.941 51.9745 227.692C52.5929 228.193 53.3354 228.517 54.1231 228.63C59.0242 229.355 66.6213 223.164 66.6213 223.164C70.8362 219.73 75.9866 215.304 81.7153 209.833L82.255 207.797C79.3997 210.468 61.6225 227.019 57.1198 226.6C56.3872 226.553 55.6894 226.271 55.1305 225.795Z" fill="#3C3973"/>
<path d="M24.1946 228.664L24.2511 228.546C26.5282 223.711 26.5873 219.684 26.5873 219.684C26.6007 218.753 26.5363 217.823 26.3946 216.903C24.8525 217.176 23.2779 217.481 21.6708 217.818C19.6627 218.24 17.724 218.685 15.8547 219.155C15.9451 219.357 16.0099 219.571 16.0475 219.79C16.3533 221.514 14.8473 222.994 14.544 223.282L23.8785 220.792C23.6234 222.023 23.2947 223.237 22.8941 224.428C21.825 227.608 20.5811 229.569 19.2447 231.003C18.5507 231.738 17.8722 232.272 16.9727 232.339C16.3381 232.367 15.7118 232.186 15.1891 231.825C14.7584 230.61 14.6896 229.296 14.9912 228.042C15.8907 224.033 17.5613 220.355 19.5145 216.77C20.3575 215.228 21.1594 213.976 23.1897 214.539C23.3139 214.558 23.4407 214.552 23.5624 214.521C27.949 213.918 32.2048 212.59 36.1557 210.591C39.3008 209.01 42.2198 207.014 44.8348 204.657C48.2787 201.573 51.0312 197.975 52.6786 193.673C54.0947 189.968 54.525 185.959 53.9277 182.038C51.8511 182.95 49.795 183.721 47.8906 184.749C45.7395 185.919 43.7425 187.368 41.6479 188.643C38.1629 190.766 35.0994 193.408 32.0436 196.096C27.2188 200.323 22.8444 205.037 18.9902 210.165C17.5176 209.992 16.3765 209.221 15.2842 208.399C11.663 205.67 9.68658 202.131 8.088 198.836C7.51487 197.648 7.10623 196.649 6.85951 196.009C5.86209 196.773 4.75353 197.379 3.57239 197.808C2.42334 198.22 1.21938 198.459 0 198.517C0.979365 200.833 2.30811 202.985 3.93991 204.899C5.0905 206.18 6.34184 207.367 7.68193 208.448C10.2983 210.584 13.133 212.303 16.4638 213.316L15.6928 214.67L14.5106 216.759C13.809 218.044 13.2461 219.15 12.8298 220C10.7866 224.166 9.3499 227.096 9.04406 230.92C8.6971 235.269 10.1183 236.878 10.5193 237.217C10.9004 237.527 11.3202 237.787 11.7683 237.988C13.4363 238.682 15.0426 238.374 16.5589 237.564C19.3115 236.102 21.1722 233.956 22.6526 231.524C23.1666 230.63 23.6806 229.682 24.1946 228.664ZM46.1558 190.37C46.7778 191.889 46.2175 193.115 45.7754 194.225C43.8093 199.232 40.8075 203.449 36.3998 206.698C33.5432 208.831 30.2402 210.29 26.739 210.964C25.6004 211.185 24.4259 211.265 22.8839 211.46C29.2422 202.46 36.4641 195.078 46.1481 190.357L46.1558 190.37Z" fill="#3C3973"/>
<path d="M168.772 189.858L156.081 202.482C157.898 198.58 159.853 194.588 161.945 190.505C163.565 187.354 165.192 184.304 166.829 181.356C165.75 180.416 164.42 179.812 163.002 179.618C162.65 180.166 162.231 180.744 161.892 181.361C160.308 184.188 158.895 187.138 157.129 189.842C155.202 192.813 152.997 195.594 150.545 198.149C149.116 199.655 147.815 200.837 146.833 201.711C146.836 201.315 146.903 200.923 147.034 200.549C147.204 200.061 147.587 199.68 148.692 197.871C149.147 197.128 149.103 196.9 148.35 196.511C147.553 196.1 146.723 195.74 145.906 195.365L145.608 195.622L139.488 205.131L139.285 205.481C139.648 206.043 140.123 206.524 140.682 206.893C141.24 207.261 141.869 207.51 142.529 207.622C144.359 206.016 146.224 204.303 148.124 202.482C150.195 200.487 152.13 198.516 153.935 196.591C153.822 196.817 153.647 197.162 153.441 197.586C152.572 199.385 152.053 200.474 151.729 201.837C151.426 203.122 151.275 203.744 151.542 204.432C152.089 205.849 153.791 206.321 154.186 206.422L168.322 191.821L168.772 189.858Z" fill="#3C3973"/>
<path d="M235.168 175.271L236.26 172.67L221.847 186.88C223.021 184.027 224.346 181.24 225.818 178.529C226.9 176.54 228.002 174.7 229.092 173.006C228.064 172.39 227.162 171.778 226.193 171.284C225.443 170.901 225.201 171.027 224.69 171.834C223.78 173.292 222.927 174.782 222.024 176.247C221.649 176.854 221.3 177.514 220.791 177.995C218.776 179.904 216.73 181.786 214.623 183.608C213.913 184.227 213.281 185.039 212.209 185.271C212.682 183.189 213.317 182.009 218.025 174.407C216.897 173.446 215.679 172.654 214.001 172.318C211.016 177.961 208.034 183.605 205.054 189.249C204.831 189.779 205.029 190.11 205.499 190.449C206.198 190.951 206.882 191.477 207.599 191.95C207.927 192.133 208.271 192.286 208.627 192.408L218.491 182.482C217.988 183.881 217.414 185.254 216.771 186.594C216.571 187.031 216.409 187.484 216.257 187.933C216.165 188.134 216.15 188.362 216.214 188.573C216.279 188.784 216.418 188.964 216.607 189.08C217.366 189.578 218.098 190.116 218.802 190.691C218.985 190.856 219.215 190.96 219.46 190.989C219.721 191.014 219.984 190.959 220.213 190.83C220.639 190.316 221.066 189.802 221.498 189.288L235.168 175.271Z" fill="#3C3973"/>
<path d="M213.609 179.726L212.735 179.079L197.194 193.51C198.61 190.397 200.244 187.128 202.136 183.743C203.218 181.808 204.315 179.968 205.41 178.22C204.382 177.603 203.478 176.992 202.511 176.501C201.761 176.118 201.517 176.228 201.005 177.051C200.697 177.547 199.949 178.873 198.343 181.461C197.965 182.067 197.553 182.652 197.109 183.211C196.062 183.676 194.96 184.134 193.801 184.586C192.74 184.997 191.704 185.37 190.717 185.709C190.848 185.452 190.974 185.195 191.123 184.938C192.089 183.11 193.16 181.339 194.333 179.636C193.203 178.673 191.987 177.881 190.306 177.544L181.362 194.473C181.139 195.005 181.334 195.334 181.807 195.676C183.244 196.704 183.279 196.848 183.904 197.174C184.133 197.295 184.326 197.388 184.454 197.431L189.571 188.033C191.099 187.632 192.603 187.146 194.076 186.578C194.842 186.28 195.57 185.972 196.261 185.655C195.495 187.137 194.73 188.624 193.966 190.114L192.791 192.41C192.68 192.646 192.594 192.893 192.534 193.147C192.46 193.36 192.449 193.589 192.501 193.808C192.573 194.007 192.708 194.176 192.886 194.291C193.627 194.805 194.398 195.319 195.081 195.902C195.258 196.076 195.49 196.182 195.737 196.203C196.076 196.183 196.394 196.03 196.621 195.776C197.23 195.193 204.123 188.686 213.609 179.726Z" fill="#3C3973"/>
<path d="M95.7287 205.682C94.9269 202.341 90.9844 199.532 87.3709 199.771C86.6895 199.831 86.0203 199.99 85.3842 200.241C85.3324 200.268 85.2826 200.298 85.2351 200.331C85.5414 200.87 85.7216 201.471 85.762 202.089C85.862 202.078 85.9609 202.058 86.0576 202.03C86.551 201.878 87.0368 201.699 87.5302 201.55C89.6042 200.925 91.5164 202.01 91.8042 204.158C91.9441 205.262 91.8567 206.384 91.5472 207.453C90.7248 210.231 89.2342 212.686 87.4711 214.973C86.0601 216.8 84.5078 218.481 82.4441 219.599C81.7167 219.992 80.8789 220.473 80.131 219.792C79.3831 219.111 79.6632 218.162 80.0513 217.394C80.7088 216.052 81.4532 214.755 82.2796 213.511C84.1856 210.746 86.6911 208.447 89.6094 206.785L87.5533 203.338C85.5295 204.194 83.6722 205.398 82.0663 206.898C81.2747 207.759 80.46 208.635 79.7326 209.581C79.5938 209.761 79.4756 209.943 79.3343 210.126L78.9719 210.64C77.5686 212.714 76.5997 214.994 76.4404 217.579C76.2733 220.244 77.7383 221.868 80.3983 222.118C81.8953 222.244 83.3988 221.966 84.752 221.313C89.4552 219.144 92.7937 215.6 94.9937 210.959C95.7801 209.291 96.1708 207.528 95.7287 205.682Z" fill="#3C3973"/>
<path d="M270.857 159.081C271.302 159.081 275.645 159.007 277.992 162.525C279.534 164.838 279.277 167.329 279.179 168.089L276.414 168.107C276.406 168.007 276.406 167.905 276.414 167.804C276.462 167.29 276.54 166.776 276.586 166.262C276.773 164.103 275.321 162.456 273.163 162.61C272.052 162.699 270.972 163.015 269.988 163.538C267.436 164.908 265.337 166.866 263.458 169.061C261.954 170.814 260.631 172.677 259.955 174.923C259.719 175.717 259.418 176.635 260.235 177.221C261.052 177.807 261.929 177.347 262.602 176.807C264.773 175.205 266.668 173.259 268.213 171.048C268.953 170.053 269.541 169.179 269.968 168.519L274.237 169.447C274.18 169.57 274.101 169.745 274 169.961C273.546 170.909 273.031 171.828 272.458 172.71C271.79 173.69 271.071 174.633 270.305 175.538C270.158 175.71 270.004 175.872 269.852 176.052L269.426 176.509C267.678 178.308 265.645 179.722 263.155 180.403C260.585 181.109 258.688 180.007 257.904 177.452C257.476 176.013 257.441 174.484 257.804 173.027C258.968 167.982 261.757 163.988 265.853 160.891C267.284 159.766 269.038 159.132 270.857 159.081Z" fill="#3C3973"/>
<path d="M139.798 196.166C138.999 192.824 135.056 190.018 131.443 190.254C130.76 190.315 130.09 190.473 129.453 190.725C129.402 190.751 129.352 190.781 129.304 190.815C129.607 191.354 129.783 191.955 129.818 192.573C129.919 192.562 130.019 192.543 130.116 192.514C130.61 192.364 131.093 192.182 131.586 192.033C133.663 191.408 135.573 192.493 135.861 194.642C136.002 195.746 135.914 196.867 135.603 197.936C134.784 200.715 133.29 203.169 131.527 205.456C130.116 207.284 128.564 208.967 126.5 210.082C125.773 210.476 124.938 210.956 124.187 210.278C123.437 209.599 123.72 208.646 124.11 207.877C124.764 206.538 125.506 205.243 126.331 204.002C128.241 201.231 130.754 198.929 133.681 197.268L131.625 193.822C129.601 194.678 127.743 195.883 126.135 197.381C125.344 198.242 124.529 199.119 123.802 200.064C123.666 200.244 123.545 200.427 123.406 200.609L123.044 201.123C121.64 203.197 120.671 205.477 120.51 208.062C120.342 210.728 121.81 212.354 124.47 212.601C125.966 212.727 127.469 212.449 128.821 211.797C133.524 209.63 136.865 206.083 139.063 201.442C139.849 199.774 140.242 198.011 139.798 196.166Z" fill="#3C3973"/>
<path d="M124.522 199.365L111.158 212.472C110.644 210.588 110.68 209.624 110.823 209.09C110.859 208.949 110.983 208.517 110.772 208.206C110.669 208.052 110.453 207.972 110.05 207.851C109.665 207.739 109.272 207.653 108.875 207.594C108.163 207.486 107.444 207.409 106.585 207.304C110.415 202.759 114.706 198.625 119.39 194.967C118.516 197.342 117.092 199.398 115.622 201.454L116.604 202.51L126.93 191.362C126.023 189.979 124.789 189.048 123.317 188.231L104.596 206.407C105.285 205.165 105.881 204.094 106.472 203.032C107.158 201.812 107.856 200.595 108.567 199.38C108.824 198.923 109.055 198.388 108.534 198.072C107.611 197.512 106.735 196.769 105.568 196.73C104.324 198.697 103.352 200.822 102.175 202.814L95.1101 216.119L98.3587 217.941C100.471 214.893 102.545 211.873 105.041 209.054C106.128 214.515 106.799 215.387 108.241 217.175L124.203 201.256L124.522 199.365Z" fill="#3C3973"/>
<path d="M261.095 168.971C256.707 173.048 252.099 176.884 247.294 180.461C246.609 180.975 245.929 181.472 245.256 181.952C244.593 179.593 244.59 178.511 244.742 177.963C244.794 177.82 244.816 177.668 244.807 177.516C244.798 177.364 244.759 177.215 244.691 177.079C244.585 176.925 244.369 176.845 243.968 176.727C243.584 176.614 243.191 176.528 242.794 176.47C242.079 176.362 241.362 176.288 240.504 176.18C244.332 171.634 248.623 167.499 253.308 163.843C252.419 166.221 250.995 168.29 249.533 170.335L250.514 171.392L260.841 160.245C259.934 158.863 258.7 157.932 257.227 157.112L238.505 175.29C239.193 174.049 239.79 172.977 240.381 171.916C241.066 170.693 241.764 169.474 242.475 168.261C242.732 167.804 242.964 167.269 242.442 166.956C241.519 166.393 240.643 165.65 239.476 165.612C238.232 167.58 237.261 169.706 236.084 171.695C233.728 176.131 231.376 180.568 229.029 185.005L232.277 186.825C234.39 183.777 236.464 180.759 238.959 177.94C240.047 183.402 240.717 184.27 242.159 186.059C243.372 185.182 244.59 184.283 245.814 183.363C251.273 179.251 256.313 175.057 260.977 170.87C261.008 170.236 261.047 169.603 261.095 168.971Z" fill="#3C3973"/>
<path d="M274.162 169.444C274.113 169.555 274.059 169.686 274 169.827C274 169.827 273.743 170.459 273.535 170.981C273.463 171.166 271.825 175.389 273.401 176.754C273.546 176.877 273.711 176.974 273.889 177.041C276.117 174.711 278.367 172.372 280.641 170.025C283.91 166.664 287.165 163.362 290.407 160.12L291.301 160.765C288.037 164.156 284.762 167.588 281.476 171.061C278.512 174.193 275.582 177.316 272.686 180.431C272.252 180.365 270.787 180.077 269.895 178.817C269.214 177.859 269.24 176.844 269.24 175.78C269.253 174.291 269.626 172.828 270.33 171.516L274.162 169.444Z" fill="#3C3973"/>
<path d="M299.484 154.165C299.327 154.073 299.152 154.016 298.97 153.998C298.649 153.933 297.572 153.779 295.868 154.928C294.406 155.918 291.756 158.354 288.654 161.867L290.921 161.155L291.481 160.59C293.334 158.698 293.622 158.382 294.159 157.943C294.696 157.508 295.271 157.121 295.876 156.786C295.403 159.87 294.182 164.592 290.687 168.999C289.9 169.994 289.034 170.925 288.099 171.783C288.324 171.286 288.546 170.789 288.767 170.292L285.046 169.161C283.76 172.3 283.022 175.637 282.864 179.025C286.202 177.245 289.198 174.887 291.713 172.06C293.023 170.574 294.194 168.971 295.213 167.272C298.477 161.991 300.924 155.208 299.484 154.165Z" fill="#3C3973"/>
<path d="M292.114 176.318C292.274 176.4 292.449 176.449 292.628 176.462C294.06 176.719 295.371 175.786 296.026 175.326C296.188 175.213 296.301 175.126 296.427 175.028C297.712 174.026 298.367 173.134 299.768 171.443C300.089 171.052 300.59 170.454 301.223 169.719L300.238 169.009L299.609 169.78C298.159 171.518 297.553 172.181 297.1 172.641C296.275 173.494 295.951 173.73 295.682 173.903C295.039 174.311 294.397 174.712 294.116 174.553C293.088 173.99 295.103 165.928 300.513 159.646C301.406 158.607 302.373 157.634 303.407 156.735L302.189 159.765L305.954 160.746C306.335 159.634 306.699 158.433 307.021 157.107C307.474 155.252 307.801 153.368 308 151.469C305.444 152.624 303.099 154.198 301.061 156.125C298.393 158.652 296.99 161.065 295.869 163.042C293.094 167.935 290.423 175.198 292.114 176.318Z" fill="#3C3973"/>
</svg>
