<svg width="94" height="74" viewBox="0 0 94 74" fill="none" xmlns="http://www.w3.org/2000/svg">
<path d="M82.7664 36.5138L37.5316 36.182L82.673 39.1022L37.5803 35.5043L82.3907 41.6969L37.6807 34.8172L81.9169 44.2744L37.8328 34.1317L81.2541 46.8158L38.036 33.4563L80.4062 49.3006L38.2878 32.799L79.3787 51.7142L38.5858 32.1653L78.1802 54.0406L38.9263 31.5597L76.8161 56.2698L39.3075 30.9848L75.2968 58.3892L39.7263 30.4436L73.63 60.3901L40.182 29.9353L71.8236 62.2632L40.6731 29.4615L69.8854 63.9998L41.1978 29.0246L67.8241 65.5936L41.7563 28.6246L65.649 67.0353L42.3469 28.263L63.3697 68.317L42.9666 27.9438L60.9977 69.4308L43.6129 27.6692L58.5473 70.3681L44.2796 27.4418L56.0326 71.1235L44.9612 27.2637L53.4732 71.6913L45.6483 27.1382L50.8864 72.0694L46.3315 27.0637L48.2924 72.2569L46.9998 27.0394L45.7079 72.2569L47.6689 27.0637L43.114 72.0694L48.3521 27.1382L40.5248 71.6913L49.04 27.2645L37.9631 71.1227L49.7216 27.4425L35.4476 70.3665L50.3891 27.67L32.9964 69.4284L51.0346 27.9445L30.6252 68.3138L51.655 28.2638L28.3459 67.0314L52.2449 28.6254L26.17 65.5897L52.8034 29.0254L24.1095 63.9951L53.3289 29.4631L22.1713 62.2569L53.8199 29.9368L20.3649 60.3838L54.2756 30.4443L18.6989 58.3829L54.6945 30.9871L17.1795 56.2635L55.0749 31.5613L15.8171 54.0351L55.4153 32.1668L14.6186 51.7079L55.7126 32.8006L13.5918 49.2952L55.9644 33.4579L12.7447 46.811L56.1675 34.1325L12.0827 44.2712L56.3197 34.818L11.6097 41.6954L56.4193 35.5051L11.3273 39.103L56.4687 36.182L11.234 36.5138L56.4687 36.8456L11.3273 33.9246L56.4193 37.5225L11.6097 31.3307L56.3189 38.2096L12.0835 28.7524L56.1668 38.896L12.7463 26.2119L55.9644 39.5713L13.5942 23.727L55.7126 40.2286L14.6209 21.3135L55.4146 40.8624L15.8202 18.9862L55.0741 41.4679L17.1835 16.7578L54.6929 42.0421L18.7028 14.6385L54.2741 42.5841L20.3704 12.6375L53.8183 43.0923L22.1768 10.7644L53.3273 43.5653L24.115 9.02705L52.8026 44.003L26.1763 7.43399L52.2433 44.403L28.3514 5.99232L51.6535 44.7638L30.6307 4.71065L51.0338 45.0839L33.0027 3.59685L50.3875 45.3584L35.4531 2.65952L49.7208 45.5859L37.967 1.90417L49.0392 45.7631L40.5272 1.33628L48.3521 45.8894L43.114 0.958217L47.6689 45.9639L45.7072 0.770752L46.9998 45.9882L48.2924 0.770752L46.3315 45.9639L50.8864 0.958217L45.6483 45.8894L53.4756 1.33628L44.9604 45.7631L56.0373 1.90495L44.2788 45.5851L58.552 2.66109L43.6113 45.3576L61.0032 3.5992L42.965 45.0831L63.3751 4.71379L42.3453 44.7631L65.6545 5.99546L41.7547 44.4022L67.8304 7.43792L41.1962 44.0022L69.8909 9.03255L40.6715 43.5645L71.8291 10.7699L40.1805 43.0908L73.6355 12.6438L39.7247 42.5825L75.3015 14.6439L39.3059 42.0405L76.8201 16.7641L38.9255 41.4663L78.1833 18.9925L38.5843 40.8608L79.3818 21.3197L38.287 40.227L80.4078 23.7325L38.036 39.5697L81.2557 26.2166L37.8328 38.8944L81.9177 28.7564L37.6807 38.2088L82.3907 31.3315L37.5803 37.5225L82.673 33.9246L37.5316 36.8456L82.7664 36.5138Z" fill="#FDB137"/>
<path d="M22.1639 45.9209C22.5847 46.5897 22.9499 47.292 23.2557 48.0207C23.3603 48.2701 23.457 48.5088 23.5459 48.7368C23.5804 48.8152 23.6087 48.8937 23.6314 48.9588L23.6487 49.0105V49.0443L22.9827 49.2796V49.2623L22.9663 49.1941C22.9427 49.1368 22.9208 49.0749 22.898 49.0066C22.8138 48.7681 22.7169 48.5343 22.6078 48.3062C22.3163 47.6078 21.9682 46.9344 21.5669 46.2927C21.328 46.0762 20.3323 45.9055 18.5801 45.7805C16.7028 45.656 15.1897 45.6903 14.0409 45.8833C13.4714 45.9967 13.147 46.1162 13.0675 46.2417C12.931 46.5827 12.766 47.2141 12.5725 48.136C12.504 48.4314 12.4416 48.7329 12.3851 49.0404C12.3623 49.1541 12.3451 49.2506 12.3341 49.3306L12.3168 49.4498L11.6195 49.3329V49.2819C11.6315 49.2551 11.6374 49.2259 11.6368 49.1964L11.705 48.889C11.7735 48.5585 11.836 48.2447 11.8925 47.9477C12.109 47.0028 12.292 46.3429 12.4416 45.968C12.5101 45.786 12.7833 45.603 13.2612 45.4189C13.293 45.366 13.321 45.311 13.3452 45.2542C13.3899 45.1632 13.4361 45.0604 13.4816 44.9467C13.6061 44.6513 13.7368 44.3158 13.8738 43.9404C14.2871 42.6555 14.6177 41.3456 14.8637 40.0185C15.7508 35.3907 16.1438 23.509 16.0403 16.4324C16.0293 16.091 16.1943 15.8122 16.5352 15.5963C16.9792 15.3458 17.6276 15.2433 18.4804 15.2888C19.2998 15.3343 19.9428 15.4935 20.4092 15.7665C20.5825 15.8512 20.7299 15.981 20.8359 16.1422C20.9026 16.2499 20.9382 16.374 20.9387 16.5007C20.9387 18.0137 20.9896 28.1698 21.0955 34.9162C21.1191 36.054 21.1418 37.2941 21.1638 38.6364C21.1758 39.5254 21.1931 40.612 21.2155 41.8963C21.249 44.1035 21.266 45.3039 21.2665 45.4973C21.7847 45.6553 22.0838 45.7964 22.1639 45.9209ZM14.8425 45.0848C16.7571 44.9241 18.6844 45.0103 20.5771 45.3412C20.5535 44.8183 20.525 43.5155 20.4916 41.4327C20.4571 39.2365 20.4228 36.9383 20.3888 34.5381C20.2868 28.1219 20.2319 18.0914 20.2319 16.4975C20.164 16.3407 19.8058 16.1984 19.1574 16.0708C18.4514 15.9464 17.837 15.9406 17.3141 16.0536L17.1431 16.0881C17.0778 16.1096 17.0149 16.138 16.9556 16.1728C16.8082 16.2418 16.7336 16.321 16.7336 16.412C16.8254 22.8627 16.5117 34.3326 15.7924 38.7666C15.5653 40.1994 15.2576 41.6182 14.8708 43.0164C14.7343 43.4938 14.5978 43.9432 14.4613 44.3647C14.3567 44.6606 14.2371 44.9509 14.1029 45.2346C14.1668 45.2334 14.23 45.2221 14.2903 45.2008L14.4472 45.1491C14.5768 45.1159 14.7091 45.0944 14.8425 45.0848Z" fill="#3C3973"/>
<path d="M32.1946 46.1835C31.1702 46.2515 30.2828 46.2858 29.5324 46.2863C27.8256 46.2863 26.8527 46.1441 26.6137 45.8596C26.409 45.5976 26.2671 35.9255 26.187 28.8944C26.164 26.2092 26.147 23.3764 26.1361 20.3957C26.1361 19.4059 26.1303 18.433 26.1188 17.4771V15.8221C26.1168 15.7482 26.131 15.6747 26.1606 15.6069C26.1901 15.5391 26.2343 15.4787 26.2898 15.4299C26.5858 15.1339 27.8829 15.0199 30.1811 15.0879C30.7955 15.1224 31.3984 15.1397 31.9898 15.1397V15.8401C31.7284 15.8401 31.4269 15.8344 31.0855 15.8228L30.1442 15.8056C29.7782 15.7946 29.454 15.7834 29.1716 15.7719C28.7956 15.7609 28.4656 15.7551 28.1817 15.7546C27.4418 15.7661 26.9866 15.8116 26.8161 15.8911C26.8161 18.4168 26.8334 21.7276 26.8679 25.8236H27.1236C27.2491 25.8118 27.3589 25.8063 27.4475 25.8063C27.755 25.7954 28.0452 25.7891 28.3182 25.7891C29.0926 25.7891 29.724 25.8063 30.2124 25.8409L30.1787 26.5405C29.6893 26.506 29.0578 26.4887 28.2845 26.4887C28.0107 26.5005 27.7268 26.506 27.4311 26.506C27.3283 26.506 27.2201 26.5123 27.1063 26.5233H26.8844C26.9416 34.3168 27.0412 44.6313 27.1746 45.4164C27.425 45.5085 28.068 45.5608 29.1033 45.5733C30.0477 45.5848 31.0658 45.5621 32.1577 45.5051L32.1946 46.1835Z" fill="#3C3973"/>
<path d="M42.7536 15.9758C42.7427 15.9758 42.6344 15.9813 42.4297 15.993C42.1907 16.016 41.9178 16.033 41.6108 16.044C40.7219 16.1125 39.88 16.175 39.0851 16.2315V32.9237C39.0961 39.4654 39.0961 43.9196 39.0851 46.2863L38.3847 46.269V16.2997C36.5545 16.4362 35.3486 16.5499 34.7672 16.6409L34.6644 15.9413C35.3583 15.8283 36.8716 15.6861 39.2044 15.5146C39.9443 15.4581 40.7287 15.4071 41.5575 15.3616C41.8304 15.3391 42.0919 15.3219 42.3418 15.3099C42.4199 15.2998 42.4985 15.2943 42.5772 15.2934C42.6163 15.2841 42.6562 15.2784 42.6964 15.2761L42.7536 15.9758Z" fill="#3C3973"/>
<path d="M63.2582 15.9758C63.2472 15.9758 63.1389 15.9813 62.9334 15.993C62.695 16.016 62.422 16.033 62.1145 16.044C61.2256 16.1125 60.3837 16.175 59.5889 16.2315V32.9237C59.5998 39.4654 59.5998 43.9196 59.5889 46.2863L58.8892 46.269V16.2997C57.059 16.4362 55.8532 16.5499 55.2717 16.6409L55.1689 15.9413C55.8628 15.8283 57.3759 15.6861 59.7081 15.5146C60.4475 15.4581 61.2319 15.4071 62.0612 15.3616C62.3342 15.3391 62.5956 15.3219 62.8456 15.3099C62.9236 15.2998 63.0022 15.2943 63.0809 15.2934C63.1203 15.2841 63.1605 15.2783 63.2009 15.2761L63.2582 15.9758Z" fill="#3C3973"/>
<path d="M47.4083 45.7058C46.5779 45.0004 46.0027 43.5624 45.6827 41.3918C45.4552 39.8439 45.3075 37.0963 45.2395 33.1488C45.1611 29.0418 45.3697 20.0576 45.8709 18.2457C46.3722 16.4338 47.2703 15.3726 48.5668 15.0878C49.5232 14.8724 50.3766 15.0374 51.127 15.5828C51.9804 16.2103 52.4526 17.1662 52.5436 18.4504L51.8604 18.5187C51.7694 17.4378 51.3885 16.6535 50.7176 16.1656C50.1371 15.7336 49.4715 15.6029 48.7206 15.7734C47.6397 16.0118 46.883 16.996 46.4506 18.7258C46.0302 20.4663 45.8592 29.2858 45.9392 33.1308C46.0077 36.9083 46.1442 39.5477 46.3486 41.049C46.6326 43.1888 47.1388 44.5598 47.8672 45.1622C48.2881 45.5283 48.8343 45.659 49.5057 45.5544C51.0305 45.316 51.8609 44.5651 51.9969 43.3017L52.6973 43.37C52.5033 44.9978 51.468 45.9592 49.5912 46.2541L49.0618 46.2886C48.4585 46.2994 47.8715 46.0925 47.4083 45.7058Z" fill="#3C3973"/>
<path d="M67.2144 46.1497C66.9423 46.0845 66.679 45.9871 66.43 45.8595C66.2146 45.723 66.0611 45.1938 65.9696 44.2719C65.7649 42.1675 65.6904 35.0814 65.7476 29.0402C65.8049 22.6013 66.0096 15.6008 66.3618 15.2706C67.2042 14.5092 68.0973 14.3612 69.0412 14.8266C69.8836 15.2596 70.5895 16.0845 71.159 17.3013C72.2163 19.5626 71.9551 21.7769 71.8249 22.9488C71.6155 24.8313 71.3465 27.2416 69.4773 28.6182C69.0452 28.9344 68.5628 29.1754 68.0505 29.3312C69.0511 29.6425 69.9479 30.2207 70.6445 31.0035C72.3512 32.8923 72.8689 38.9547 72.1975 43.1613C71.97 44.4921 71.3101 45.4072 70.2178 45.9066C69.6509 46.1679 69.0323 46.2976 68.4082 46.2862C68.0063 46.287 67.6057 46.2412 67.2144 46.1497ZM67.3509 45.4665C67.6034 45.5259 67.8601 45.566 68.1188 45.5865C68.8022 45.632 69.4109 45.5295 69.9448 45.2791C70.8092 44.8811 71.3269 44.136 71.4979 43.0436C72.1355 39.0731 71.6798 33.199 70.1338 31.449C69.5688 30.8302 68.8593 30.361 68.0686 30.0834C67.764 29.9676 67.4487 29.8819 67.1273 29.8277C66.8999 29.7822 66.6732 29.7493 66.4449 29.725C66.4339 29.9864 66.4282 30.3619 66.4277 30.8513C66.4049 34.1284 66.4394 39.8779 66.5304 42.0733C66.6094 43.9035 66.7119 44.9729 66.8379 45.2814C67.001 45.3631 67.1732 45.4253 67.3509 45.4665ZM66.4473 29.0065C66.6042 28.9837 66.772 28.9547 66.9422 28.921C67.2913 28.8512 67.5501 28.779 67.5909 28.7641C68.136 28.6072 68.9094 28.1264 69.2208 27.8731C70.6743 26.6894 71.0939 23.1464 71.1237 22.8774C71.4524 19.9054 70.7315 18.0551 70.5433 17.6394C70.0538 16.5475 69.4451 15.8194 68.7173 15.4549C68.0898 15.1375 67.4811 15.2342 66.8912 15.7451C66.6747 16.3969 66.5257 23.2264 66.4473 29.0065Z" fill="#3C3973"/>
<path d="M77.3438 45.6745C76.5114 44.8007 75.88 43.0826 75.4496 40.5204C75.0974 38.4025 74.9319 30.267 74.9547 27.2268C75.0001 23.7792 75.2561 21.042 75.7226 19.0152C76.35 16.3358 77.3399 14.9961 78.6922 14.9961C80.0805 14.9961 81.0759 16.324 81.6783 18.9799C82.0877 20.8211 82.321 23.4129 82.3779 26.7554C82.3897 28.3626 82.378 35.2376 82.3442 36.2745C82.2867 37.6143 82.19 38.8313 82.054 39.9258C81.7021 42.7684 81.0819 44.6556 80.1935 45.5874C79.7506 46.0533 79.2444 46.2863 78.6749 46.2863C78.1865 46.2863 77.7428 46.0823 77.3438 45.6745ZM76.525 18.7705C75.99 20.8099 75.7056 23.6286 75.6716 27.2268C75.6371 30.4773 75.819 38.732 76.2206 40.8874C76.6191 43.0314 77.1595 44.4582 77.8419 45.1678C78.1034 45.436 78.3821 45.5701 78.6781 45.5701C79.0441 45.5701 79.3853 45.407 79.7017 45.0807C80.3731 44.3816 80.8853 42.9838 81.2383 40.8874C81.5795 38.7696 81.7214 30.3612 81.665 26.7687C81.6074 22.645 81.2547 19.6574 80.6068 17.8057C80.1174 16.408 79.4802 15.7091 78.6953 15.7091C77.7828 15.7117 77.0594 16.7322 76.525 18.7705Z" fill="#3C3973"/>
<path d="M53.8112 59.1021L52.9876 58.8849C53.2496 58.4786 53.4754 58.1303 53.7288 57.7381C54.7348 57.8494 55.7529 57.7355 56.7094 57.4047L56.8835 57.8228C56.2629 58.1113 55.5921 58.2764 54.9085 58.3091C54.7603 58.3162 54.6167 58.3154 54.4794 58.3091C54.4794 58.6593 54.4319 59.0079 54.3383 59.3453C54.3383 59.3453 54.0904 60.2332 53.4755 60.914C53.3068 61.0985 53.1205 61.2661 52.9193 61.4145C52.5822 61.6794 52.199 61.8796 51.7891 62.0051C51.5624 62.0671 51.0761 62.1463 50.7811 61.9102C50.2666 61.4984 50.6156 60.3093 50.8211 59.6065C51.1082 58.6276 51.4957 57.9687 52.0973 57.0761C52.4895 56.4957 52.9601 55.978 53.4504 55.4736C53.7131 55.2007 53.7131 55.2022 54.0724 55.3677C54.2983 55.4721 54.5336 55.5536 54.7603 55.6556C54.835 55.7002 54.9047 55.7528 54.9681 55.8125C54.6465 56.1262 54.3045 56.3843 54.0496 56.7129C53.6315 57.2526 53.1539 57.7452 52.8213 58.3601C52.5687 58.8253 52.2816 59.2684 52.1867 59.7971C52.1429 60.0262 52.1271 60.2599 52.1397 60.4928C52.1632 60.8505 52.4001 60.9854 52.7052 60.8066C53.1549 60.5505 53.4953 60.1387 53.6621 59.6488C53.7186 59.4959 53.75 59.3351 53.8112 59.1021Z" fill="#3C3973"/>
<path d="M16.8256 69.3901C16.6688 69.2332 16.4499 68.8771 16.7558 67.5461C16.9557 66.6871 17.2702 65.859 17.6908 65.0839C20.5828 59.4788 25.1596 57.1923 25.1604 57.1923C25.6545 56.946 26.075 56.7688 26.3573 56.6558C25.9024 57.4975 25.2208 58.0638 24.4945 58.5383C24.6051 58.9525 24.907 59.1446 25.1463 59.3854C25.2702 59.5109 25.4122 59.4811 25.5236 59.3698C26.0002 58.9039 26.4291 58.3915 26.8036 57.8402C27.0641 57.4342 27.2718 56.9967 27.4217 56.5382C27.5245 56.2362 27.7025 55.964 27.6068 55.5969C27.5284 55.5969 27.4006 55.5969 27.25 55.6048C22.721 55.8064 19.5733 59.8537 18.0901 61.7597C14.7635 66.0401 15.071 68.6795 15.2145 69.0771C15.3408 69.4303 15.5656 69.7398 15.8624 69.969C16.0512 70.1218 16.2778 70.2207 16.5182 70.2553C18.014 70.4765 20.3326 68.5869 20.3326 68.5869C21.6189 67.539 23.1908 66.1883 24.9392 64.5184L25.1039 63.8972C24.2325 64.7121 18.807 69.7635 17.4328 69.6356C17.2092 69.6215 16.9962 69.5353 16.8256 69.3901Z" fill="#3C3973"/>
<path d="M7.38408 70.2655L7.40134 70.2294C8.09629 68.754 8.11433 67.5249 8.11433 67.5249C8.11842 67.2408 8.09874 66.957 8.0555 66.6762C7.58488 66.7593 7.10432 66.8524 6.61383 66.9554C6.00097 67.0841 5.40929 67.22 4.83879 67.3633C4.86638 67.4252 4.88614 67.4903 4.89762 67.557C4.99096 68.0834 4.53132 68.5352 4.43876 68.623L7.2876 67.8629C7.20975 68.2386 7.10943 68.6092 6.98719 68.9728C6.66089 69.9431 6.28125 70.5416 5.87338 70.9793C5.6616 71.2036 5.45452 71.3667 5.17999 71.3871C4.9863 71.3955 4.79517 71.3404 4.63564 71.2303C4.50419 70.8593 4.48321 70.4583 4.57524 70.0757C4.84977 68.852 5.35962 67.7296 5.95574 66.6354C6.21301 66.1648 6.45774 65.7828 7.07739 65.9546C7.11528 65.9605 7.15398 65.9586 7.19112 65.9491C8.5299 65.7652 9.82876 65.3599 11.0345 64.7498C11.9944 64.2671 12.8853 63.658 13.6834 62.9387C14.7344 61.9974 15.5745 60.8993 16.0773 59.5863C16.5094 58.4556 16.6408 57.2321 16.4585 56.0354C15.8247 56.3139 15.1972 56.5492 14.616 56.8629C13.9595 57.2198 13.35 57.6622 12.7108 58.0512C11.6471 58.6991 10.7122 59.5055 9.77955 60.3259C8.30706 61.6159 6.97201 63.0548 5.79573 64.6196C5.34628 64.567 4.99802 64.3317 4.66466 64.0807C3.55948 63.2477 2.9563 62.1676 2.46842 61.1621C2.2935 60.7997 2.16879 60.4946 2.09349 60.2992C1.78908 60.5324 1.45076 60.7176 1.09028 60.8483C0.739592 60.9741 0.372148 61.0471 0 61.0648C0.298898 61.7716 0.704425 62.4285 1.20244 63.0124C1.5536 63.4034 1.9355 63.7656 2.34449 64.0956C3.14298 64.7474 4.00814 65.2722 5.02469 65.5812L4.78938 65.9946L4.42857 66.6323C4.21443 67.0245 4.04265 67.3617 3.91559 67.6214C3.29201 68.8928 2.85355 69.787 2.76021 70.9542C2.65432 72.2813 3.08807 72.7723 3.21044 72.8759C3.32674 72.9705 3.45489 73.0496 3.59164 73.1112C4.1007 73.323 4.59093 73.2288 5.05371 72.9818C5.89377 72.5355 6.46166 71.8805 6.91346 71.1385C7.07033 70.8655 7.22721 70.5761 7.38408 70.2655ZM14.0865 58.5783C14.2764 59.0419 14.1054 59.416 13.9705 59.7549C13.3704 61.2828 12.4543 62.57 11.1091 63.5615C10.2372 64.2126 9.22916 64.6578 8.16061 64.8635C7.81313 64.931 7.45467 64.9553 6.98405 65.0149C8.92459 62.268 11.1287 60.0153 14.0842 58.5744L14.0865 58.5783Z" fill="#3C3973"/>
<path d="M51.5083 58.4221L47.635 62.2749C48.1899 61.0842 48.7865 59.8658 49.425 58.6197C49.9191 57.6581 50.4159 56.7273 50.9153 55.8274C50.5861 55.5404 50.1801 55.3561 49.7474 55.2971C49.6399 55.4642 49.5121 55.6407 49.4085 55.8289C48.9253 56.6917 48.4939 57.5922 47.9551 58.4174C47.3668 59.324 46.694 60.1728 45.9455 60.9524C45.5094 61.4121 45.1125 61.7729 44.8129 62.0396C44.8135 61.9188 44.8342 61.799 44.8741 61.685C44.9258 61.536 45.0427 61.4199 45.38 60.8677C45.5188 60.641 45.5055 60.5712 45.2757 60.4528C45.0325 60.3273 44.7792 60.2175 44.5297 60.103L44.4387 60.1814L42.5711 63.0836L42.5092 63.1903C42.6198 63.3619 42.7649 63.5087 42.9353 63.6212C43.1058 63.7337 43.2977 63.8094 43.4991 63.8436C44.0575 63.3537 44.6267 62.8308 45.2066 62.2749C45.8388 61.6662 46.4295 61.0646 46.9801 60.4771C46.9456 60.5461 46.8923 60.6512 46.8295 60.7807C46.5644 61.3297 46.4059 61.6623 46.3071 62.078C46.2146 62.4702 46.1683 62.66 46.2498 62.8702C46.4169 63.3024 46.9362 63.4467 47.057 63.4773L51.371 59.0213L51.5083 58.4221Z" fill="#3C3973"/>
<path d="M71.7723 53.9701L72.1057 53.1764L67.7069 57.5132C68.065 56.6426 68.4696 55.7919 68.9188 54.9647C69.249 54.3576 69.5855 53.796 69.918 53.2791C69.6043 53.0909 69.329 52.9042 69.0333 52.7536C68.8042 52.6367 68.7305 52.6751 68.5744 52.9214C68.2967 53.3662 68.0363 53.8211 67.761 54.2682C67.6465 54.4533 67.5398 54.6549 67.3845 54.8016C66.7696 55.3844 66.1452 55.9585 65.502 56.5147C65.2855 56.7037 65.0926 56.9515 64.7655 57.0221C64.9098 56.3868 65.1036 56.0268 66.5405 53.7066C66.1962 53.4132 65.8244 53.1717 65.3122 53.0689C64.4013 54.7914 63.4912 56.5139 62.5818 58.2363C62.5136 58.3979 62.574 58.4991 62.7175 58.6026C62.9309 58.7556 63.1395 58.9164 63.3583 59.0607C63.4586 59.1164 63.5636 59.1632 63.6721 59.2003L66.6825 56.1711C66.5291 56.5981 66.354 57.017 66.1578 57.4261C66.0966 57.5594 66.0472 57.6975 66.0009 57.8348C65.9728 57.896 65.9681 57.9655 65.9877 58.0299C66.0074 58.0944 66.05 58.1494 66.1076 58.1846C66.3392 58.3368 66.5628 58.5009 66.7774 58.6764C66.8334 58.7266 66.9035 58.7584 66.9782 58.7674C67.058 58.775 67.1382 58.758 67.208 58.7187C67.3382 58.5619 67.4684 58.405 67.6002 58.2481L71.7723 53.9701Z" fill="#3C3973"/>
<path d="M65.1923 55.33L64.9256 55.1323L60.1825 59.5365C60.6147 58.5867 61.1135 57.5889 61.6908 56.5559C62.0211 55.9653 62.356 55.4037 62.6901 54.8703C62.3764 54.6821 62.1003 54.4954 61.8054 54.3456C61.5763 54.2287 61.5018 54.2624 61.3457 54.5134C61.2516 54.6648 61.0233 55.0695 60.5331 55.8594C60.4178 56.0444 60.2921 56.2227 60.1566 56.3936C59.8371 56.5353 59.5006 56.6752 59.1471 56.8132C58.8232 56.9387 58.5071 57.0524 58.2059 57.156C58.2459 57.0775 58.2843 56.9991 58.3298 56.9207C58.6244 56.3626 58.9515 55.8222 59.3095 55.3025C58.9644 55.0084 58.5934 54.7668 58.0804 54.664L55.3508 59.8307C55.2825 59.993 55.3421 60.0934 55.4865 60.1978C55.9249 60.5115 55.9359 60.5554 56.1265 60.6551C56.1963 60.6919 56.2551 60.7202 56.2944 60.7335L57.856 57.865C58.3223 57.7427 58.7813 57.5944 59.231 57.4211C59.4648 57.3301 59.687 57.2362 59.8978 57.1395C59.664 57.5918 59.4305 58.0454 59.1973 58.5004L58.8389 59.2008C58.8049 59.2729 58.7786 59.3484 58.7604 59.4259C58.7378 59.4908 58.7342 59.5607 58.7502 59.6275C58.7722 59.6882 58.8136 59.74 58.8679 59.775C59.0938 59.9319 59.3291 60.0887 59.5377 60.2668C59.5917 60.3198 59.6624 60.3522 59.7378 60.3586C59.8414 60.3526 59.9384 60.3058 60.0076 60.2284C60.1935 60.0503 62.2972 58.0643 65.1923 55.33Z" fill="#3C3973"/>
<path d="M29.2157 63.2515C28.971 62.2318 27.7678 61.3745 26.665 61.4475C26.457 61.4659 26.2528 61.5142 26.0586 61.591C26.0428 61.599 26.0276 61.6082 26.0131 61.6184C26.1066 61.7828 26.1616 61.9663 26.1739 62.155C26.2045 62.1515 26.2346 62.1455 26.2641 62.1369C26.4147 62.0906 26.563 62.0357 26.7136 61.9902C27.3466 61.7996 27.9301 62.1306 28.018 62.7864C28.0607 63.1234 28.034 63.4656 27.9396 63.7919C27.6886 64.6398 27.2336 65.3889 26.6955 66.087C26.2649 66.6447 25.7912 67.1577 25.1613 67.4989C24.9393 67.6189 24.6836 67.7656 24.4554 67.5577C24.2271 67.3499 24.3126 67.0604 24.4311 66.8259C24.6317 66.4165 24.8589 66.0206 25.1111 65.6407C25.6928 64.7968 26.4575 64.0952 27.3481 63.588L26.7206 62.5362C26.103 62.7972 25.5361 63.1649 25.046 63.6225C24.8044 63.8853 24.5558 64.1528 24.3338 64.4414C24.2914 64.4963 24.2554 64.552 24.2122 64.6077L24.1016 64.7646C23.6734 65.3975 23.3777 66.0933 23.329 66.8824C23.278 67.6958 23.7251 68.1915 24.537 68.2676C24.9938 68.306 25.4527 68.2212 25.8657 68.0221C27.3011 67.3601 28.32 66.2784 28.9914 64.8618C29.2314 64.3528 29.3506 63.8147 29.2157 63.2515Z" fill="#3C3973"/>
<path d="M82.6644 49.0293C82.8001 49.0293 84.1257 49.0066 84.8418 50.0804C85.3124 50.7863 85.234 51.5464 85.2042 51.7786L84.3602 51.784C84.3578 51.7532 84.3578 51.7223 84.3602 51.6915C84.3751 51.5346 84.3987 51.3777 84.4128 51.2209C84.47 50.562 84.0269 50.0592 83.368 50.1063C83.0291 50.1334 82.6994 50.2298 82.3993 50.3894C81.6204 50.8075 80.9796 51.4052 80.4062 52.0751C79.9473 52.61 79.5434 53.1787 79.3371 53.8642C79.2649 54.1066 79.1732 54.3866 79.4226 54.5654C79.672 54.7443 79.9395 54.6039 80.145 54.4391C80.8074 53.9501 81.3858 53.3564 81.8573 52.6814C82.0832 52.3778 82.2628 52.1111 82.393 51.9095L83.6959 52.1927C83.6786 52.2304 83.6543 52.2837 83.6237 52.3496C83.4849 52.6391 83.3277 52.9194 83.1531 53.1889C82.9491 53.4877 82.7297 53.7757 82.4958 54.0517C82.451 54.1042 82.404 54.1536 82.3577 54.2085L82.2275 54.3482C81.6941 54.8972 81.0737 55.3286 80.3136 55.5365C79.5293 55.7522 78.9504 55.4157 78.7112 54.636C78.5804 54.1966 78.5698 53.7302 78.6806 53.2853C79.0359 51.7456 79.8869 50.5267 81.1372 49.5815C81.5739 49.2384 82.1093 49.0448 82.6644 49.0293Z" fill="#3C3973"/>
<path d="M42.6654 60.3471C42.4215 59.3274 41.2182 58.4709 40.1154 58.5431C39.9072 58.5615 39.7027 58.6098 39.5083 58.6866C39.4925 58.6947 39.4773 58.7038 39.4628 58.7141C39.5553 58.8786 39.6089 59.0621 39.6197 59.2506C39.6505 59.2474 39.681 59.2414 39.7107 59.2325C39.8613 59.187 40.0087 59.1314 40.1593 59.0859C40.7931 58.8953 41.3759 59.2263 41.4638 59.882C41.5069 60.219 41.4802 60.5613 41.3853 60.8876C41.1351 61.7355 40.6794 62.4845 40.1413 63.1826C39.7107 63.7403 39.2369 64.2541 38.6071 64.5945C38.3851 64.7145 38.1302 64.8612 37.9011 64.6541C37.6721 64.447 37.7584 64.156 37.8776 63.9215C38.0773 63.5128 38.3037 63.1177 38.5553 62.7387C39.1383 61.8931 39.9053 61.1905 40.7986 60.6836L40.1711 59.6318C39.5534 59.893 38.9863 60.2607 38.4957 60.7181C38.2541 60.9809 38.0055 61.2484 37.7835 61.537C37.7419 61.5919 37.705 61.6476 37.6627 61.7033L37.5521 61.8602C37.1238 62.4932 36.8281 63.1889 36.7787 63.978C36.7277 64.7914 37.1756 65.2879 37.9874 65.3632C38.4441 65.4016 38.9026 65.3169 39.3154 65.1177C40.7508 64.4565 41.7704 63.374 42.4411 61.9574C42.6811 61.4484 42.8011 60.9103 42.6654 60.3471Z" fill="#3C3973"/>
<path d="M38.0035 61.3234L33.9247 65.3237C33.7679 64.7488 33.7789 64.4547 33.8228 64.2915C33.8338 64.2484 33.8714 64.1166 33.8071 64.0217C33.7757 63.9746 33.7098 63.9503 33.5867 63.9134C33.4691 63.8792 33.3494 63.853 33.2282 63.835C33.0109 63.8021 32.7913 63.7785 32.5293 63.7464C33.698 62.3594 35.0076 61.0976 36.4371 59.9814C36.1704 60.7061 35.7359 61.3336 35.2872 61.9611L35.5868 62.2835L38.7384 58.8809C38.4616 58.4589 38.0851 58.175 37.6356 57.9255L31.9222 63.4726C32.1325 63.0938 32.3144 62.7667 32.4948 62.4427C32.704 62.0704 32.9171 61.6989 33.1341 61.3281C33.2125 61.1885 33.2831 61.0254 33.1239 60.9289C32.8423 60.7579 32.5748 60.5312 32.2187 60.5195C31.8391 61.1195 31.5426 61.7682 31.1834 62.3761L29.0271 66.4368L30.0186 66.9929C30.6633 66.0626 31.2963 65.141 32.0579 64.2805C32.3897 65.9473 32.5944 66.2132 33.0345 66.7591L37.9062 61.9007L38.0035 61.3234Z" fill="#3C3973"/>
<path d="M79.6851 52.0473C78.3456 53.2917 76.9395 54.4624 75.473 55.5542C75.2638 55.7111 75.0565 55.8628 74.851 56.0092C74.6486 55.2891 74.6478 54.9589 74.6941 54.7918C74.7099 54.7481 74.7166 54.7017 74.7139 54.6553C74.7112 54.6089 74.6991 54.5636 74.6784 54.522C74.6463 54.4749 74.5804 54.4506 74.458 54.4146C74.3405 54.3799 74.2207 54.3537 74.0996 54.3361C73.8815 54.3032 73.6627 54.2804 73.4007 54.2475C74.5689 52.8601 75.8785 51.5983 77.3084 50.4825C77.037 51.208 76.6025 51.8395 76.1562 52.4638L76.4558 52.7862L79.6074 49.3844C79.3305 48.9624 78.954 48.6784 78.5046 48.4282L72.7904 53.9761C73.0006 53.5972 73.1826 53.2702 73.363 52.9462C73.5722 52.5728 73.7853 52.2011 74.0023 51.8308C74.0807 51.6912 74.1513 51.5281 73.9921 51.4324C73.7105 51.2606 73.443 51.0339 73.0869 51.0221C72.7073 51.623 72.4108 52.2717 72.0516 52.8788C71.3325 54.2326 70.6148 55.5867 69.8985 56.941L70.8899 57.4964C71.5347 56.5661 72.1676 55.6452 72.9293 54.7848C73.2611 56.4516 73.4658 56.7167 73.9058 57.2626C74.276 56.9949 74.6478 56.7206 75.0212 56.4398C76.6872 55.1848 78.2253 53.9047 79.649 52.627C79.6584 52.4335 79.6704 52.2403 79.6851 52.0473Z" fill="#3C3973"/>
<path d="M83.6728 52.1919C83.6579 52.2256 83.6415 52.2656 83.6234 52.3088C83.6234 52.3088 83.545 52.5017 83.4814 52.6609C83.4595 52.7174 82.9598 54.0061 83.4407 54.4227C83.4849 54.4603 83.5353 54.49 83.5897 54.5105C84.2695 53.7993 84.9563 53.0856 85.6502 52.3692C86.6479 51.3432 87.6415 50.3355 88.6308 49.3462L88.9038 49.5431C87.9077 50.5779 86.9081 51.6253 85.9051 52.6853C85.0005 53.6412 84.1063 54.5944 83.2226 55.5451C83.09 55.5247 82.6429 55.4368 82.3708 55.0525C82.1629 54.7599 82.1708 54.4501 82.1708 54.1254C82.1746 53.6711 82.2887 53.2245 82.5033 52.8241L83.6728 52.1919Z" fill="#3C3973"/>
<path d="M91.4012 47.5287C91.3531 47.5008 91.2996 47.4834 91.2443 47.4777C91.1462 47.4581 90.8176 47.4111 90.2976 47.7617C89.8512 48.0637 89.0426 48.8072 88.0958 49.8795L88.7876 49.6622L88.9586 49.4896C89.5242 48.9123 89.612 48.8159 89.776 48.6817C89.9399 48.5489 90.1152 48.4308 90.2999 48.3288C90.1556 49.27 89.783 50.7109 88.7163 52.0561C88.476 52.3598 88.2119 52.6439 87.9264 52.9056C87.9949 52.7539 88.0629 52.6023 88.1303 52.4507L86.9946 52.1055C86.6022 53.0636 86.377 54.0818 86.3286 55.1159C87.3474 54.5727 88.2618 53.853 89.0292 52.9903C89.4291 52.5367 89.7867 52.0476 90.0975 51.529C91.0937 49.9171 91.8404 47.8472 91.4012 47.5287Z" fill="#3C3973"/>
<path d="M89.152 54.2899C89.2008 54.3148 89.2542 54.3297 89.3088 54.3338C89.7457 54.4123 90.1458 54.1275 90.3458 53.9871C90.3952 53.9526 90.4297 53.926 90.4681 53.8961C90.8603 53.5902 91.0603 53.3181 91.4878 52.8019C91.5859 52.6827 91.7388 52.5 91.9318 52.2756L91.6314 52.0592L91.4392 52.2945C90.9968 52.8247 90.8117 53.0271 90.6736 53.1675C90.4219 53.4279 90.323 53.5 90.2407 53.5526C90.0446 53.6773 89.8485 53.7997 89.763 53.751C89.4492 53.5793 90.0642 51.1187 91.7153 49.2017C91.9877 48.8844 92.2829 48.5874 92.5985 48.313L92.2267 49.2378L93.3758 49.5374C93.4919 49.1978 93.6033 48.8315 93.7013 48.4267C93.8397 47.8605 93.9395 47.2855 94.0002 46.7058C93.2202 47.0586 92.5044 47.5389 91.8824 48.1271C91.0682 48.8981 90.6399 49.6347 90.2979 50.2378C89.4508 51.7313 88.6358 53.9479 89.152 54.2899Z" fill="#3C3973"/>
</svg>
